# AST/ASF file generated using VICON BodyLanguage
# -----------------------------------------------
:version 1.10
:name VICON
:units
  mass 1.0
  length 0.45
  angle deg
:documentation
   .ast/.asf automatically generated from VICON data using
   VICON BodyBuilder and BodyLanguage model FoxedUp or BRILLIANT.MOD
:root
   order TX TY TZ RX RY RZ
   axis XYZ
   position 0 0 0  
   orientation 0 0 0 
:bonedata
  begin
     id 1 
     name lhipjoint
     direction 0.547975 -0.797114 0.253638 
     length 2.36201 
     axis 0 0 0  XYZ
  end
  begin
     id 2 
     name lfemur
     direction 0.34202 -0.939693 0  
     length 7.69075  
     axis 0 0 20  XYZ
    dof rx ry rz
    limits (-160.0 20.0)
           (-70.0 70.0)
           (-60.0 70.0)
  end
  begin
     id 3 
     name ltibia
     direction 0.34202 -0.939693 0   
     length 7.91399   
     axis 0 0 20   XYZ
    dof rx
    limits (-10.0 170.0)
  end
  begin
     id 4 
     name lfoot
     direction 0.0705293 -0.193778 0.978507   
     length 2.13618   
     axis -90 7.62852e-016 20   XYZ
    dof rx rz
    limits (-45.0 90.0)
           (-70.0 20.0)
  end
  begin
     id 5 
     name ltoes
     direction 1.53592e-011 -4.21925e-011 1   
     length 1.07518   
     axis -90 7.62852e-016 20   XYZ
    dof rx
    limits (-90.0 20.0)
  end
  begin
     id 6 
     name rhipjoint
     direction -0.57 -0.782963 0.249136   
     length 2.4047  
     axis 0 0 0  XYZ 
  end
  begin
     id 7 
     name rfemur
     direction -0.34202 -0.939693 0   
     length 7.51486   
     axis 0 0 -20   XYZ
    dof rx ry rz
    limits (-160.0 20.0)
           (-70.0 70.0)
           (-70.0 60.0)
  end
  begin
     id 8 
     name rtibia
     direction -0.34202 -0.939693 0   
     length 8.08317   
     axis 0 0 -20   XYZ
    dof rx
    limits (-10.0 170.0)
 end
 begin
     id 9 
     name rfoot
     direction -0.104954 -0.281256 0.953876   
     length 2.30343  
     axis -90 -7.62852e-016 -20   XYZ
    dof rx rz
    limits (-45.0 90.0)
           (-20.0 70.0)
  end
  begin
     id 10 
     name rtoes
     direction -1.53556e-011 -4.21922e-011 1   
     length 1.14803   
     axis -90 -7.62852e-016 -20   XYZ
    dof rx
    limits (-90.0 20.0)
  end
  begin
     id 11 
     name lowerback
     direction -0.0152855 0.99353 -0.11254   
     length 2.05311   
     axis 0 0 0   XYZ
    dof rx ry rz
    limits (-20.0 45.0)
           (-30.0 30.0)
           (-30.0 30.0)
  end
  begin
     id 12 
     name upperback
     direction -0.00157509 0.999443 -0.033332   
     length 2.06353   
     axis 0 0 0   XYZ
    dof rx ry rz
    limits (-20.0 45.0)
           (-30.0 30.0)
           (-30.0 30.0)
  end
  begin
     id 13 
     name thorax
     direction 0.00577788 0.999804 0.0189484   
     length 2.08472   
     axis 0 0 0   XYZ
    dof rx ry rz
    limits (-20.0 45.0)
           (-30.0 30.0)
           (-30.0 30.0)
  end
  begin
     id 14 
     name lowerneck
     direction -1.09301e-005 0.994719 0.10264   
     length 1.76249   
     axis 0 0 0   XYZ
    dof rx ry rz
    limits (-20.0 45.0)
           (-30.0 30.0)
           (-30.0 30.0)
  end
  begin
     id 15 
     name upperneck
     direction 0.0495018 0.988526 -0.142706   
     length 1.77897   
     axis 0 0 0   XYZ
    dof rx ry rz
    limits (-20.0 45.0)
           (-30.0 30.0)
           (-30.0 30.0)
  end
  begin
     id 16
     name head
     direction 0.0142736 0.998114 -0.0597101  
     length 1.78934  
     axis 0 0 0   XYZ
    dof rx ry rz
    limits (-20.0 45.0)
           (-30.0 30.0)
           (-30.0 30.0)
  end
  begin
     id 17 
     name lclavicle
     direction 0.918111 0.396107 -0.0130883  
     length 3.37276  
     axis 0 0 0   XYZ
    dof ry rz
    limits (-20.0 10.0)
           (0.0 20.0)
  end
  begin
     id 18 
     name lhumerus
     direction 1 -4.48975e-011 -3.26108e-027   
     length 5.34298   
     axis 180 -30 -90   XYZ
    dof rx ry rz
    limits (-60.0 90.0)
           (-90.0 90.0)
           (-90.0 90.0)
  end
  begin
     id 19
     name lradius
     direction 1 -4.48964e-011 -8.84413e-028   
     length 3.67262   
     axis 180 -30 -90   XYZ
    dof rx
    limits (-10.0 170.0)
  end
  begin
     id 20
     name lwrist
     direction 1 -4.48991e-011 -1.24264e-027   
     length 1.83631   
     axis -2.17013e-015 90 90   XYZ
    dof ry
    limits (-180.0 0.0)
 end
  begin
     id 21 
     name lhand
     direction 1 -4.48855e-011 -2.48528e-027   
     length 0.599298   
     axis 1.58582e-015 90 90   XYZ
    dof rx rz
    limits (-90.0 90.0)
           (-45.0 45.0)
  end
  begin
     id 22 
     name lfingers
     direction 1 -4.48811e-011 -4.97056e-027   
     length 0.48317   
     axis 3.17164e-015 90 90   XYZ
    dof rx
    limits (0.0 90.0)
  end
  begin
     id 23
     name lthumb
     direction 0.707107 -6.34882e-011 0.707107   
     length 0.693738   
     axis -90 45 2.85299e-015   XYZ
    dof rx rz
    limits (-45.0 45.0)
           (-45.0 45.0)
  end
  begin
     id 24 
     name rclavicle
     direction -0.920511 0.384752 -0.0680135   
     length 3.43787  
     axis 0 0 0   XYZ 
    dof ry rz
    limits (-10.0 20.0)
           (-20.0 0.0)
  end
  begin
     id 25 
     name rhumerus
     direction -0.999976 -0.00330524 0.00603274  
     length 5.5498   
     axis 180 30 90   XYZ
    dof rx ry rz
    limits (-90.0 60.0)
           (-90.0 90.0)
           (-90.0 90.0)
  end
  begin
     id 26 
     name rradius
     direction -1 -4.48967e-011 8.62438e-027   
     length 3.69401   
     axis 180 30 90   XYZ
    dof rx
    limits (-10.0 170.0)
  end
  begin
     id 27 
     name rwrist
     direction -1 -4.4897e-011 9.54866e-027   
     length 1.84701   
     axis -7.69462e-015 -90 -90   XYZ
    dof ry
    limits (-180.0 0.0)
  end
  begin
     id 28
     name rhand
     direction -1 -4.48982e-011 1.90973e-026   
     length 0.638113   
     axis -1.21857e-014 -90 -90   XYZ
    dof rx rz
    limits (-90.0 90.0)
           (-45.0 45.0)
  end
  begin
     id 29
     name rfingers
     direction -1 -4.48936e-011 3.81946e-026   
     length 0.514463   
     axis -2.43714e-014 -90 -90   XYZ
    dof rx
    limits (0.0 90.0)
  end
  begin
     id 30
     name rthumb
     direction -0.707107 -6.34942e-011 0.707107   
     length 0.738669   
     axis -90 -45 -2.85299e-015   XYZ
    dof rx rz
    limits (-45.0 45.0)
           (-45.0 45.0)
  end
:hierarchy
  begin
    root lhipjoint rhipjoint lowerback
    lhipjoint lfemur
    lfemur ltibia
    ltibia lfoot
    lfoot ltoes
    rhipjoint rfemur
    rfemur rtibia
    rtibia rfoot
    rfoot rtoes
    lowerback upperback
    upperback thorax
    thorax lowerneck lclavicle rclavicle
    lowerneck upperneck
    upperneck head
    lclavicle lhumerus
    lhumerus lradius
    lradius lwrist
    lwrist lhand lthumb
    lhand lfingers
    rclavicle rhumerus
    rhumerus rradius
    rradius rwrist
    rwrist rhand rthumb
    rhand rfingers
  end

#!OML:ASF F:\twosubjects\two\Thursday\Session 1\Rory.ASF
:FULLY-SPECIFIED
:DEGREES
144
root 7.53079 18.3545 -9.9341 0.869375 -3.36286 4.49039
lowerback -2.4043 0.439137 -1.63944
upperback 1.27911 0.698373 -2.20132
thorax 2.67021 0.339482 -1.30975
lowerneck -8.51044 -4.18915 -1.75821
upperneck 35.3082 -10.6781 13.1656
head 14.5104 -3.29724 4.1482
rclavicle 3.08737e-015 1.38155e-014
rhumerus -36.7444 -22.006 -73.8172
rradius 23.2191
rwrist 28.8785
rhand -24.906 25.8867
rfingers 7.12502
rthumb 1.60237 -4.08699
lclavicle 3.08737e-015 1.38155e-014
lhumerus -36.5325 29.1491 69.3565
lradius 21.971
lwrist -28.5659
lhand -12.4649 28.8986
lfingers 7.12502
lthumb 13.609 58.4337
rfemur -5.59593 5.385 15.8568
rtibia 21.0448
rfoot -15.3304 -15.9023
rtoes 0.0684381
lfemur -7.75692 -3.21682 -19.431
ltibia 16.7329
lfoot -9.67749 4.00627
ltoes -2.20299
145
root 7.53247 18.3548 -9.93833 0.925306 -3.376 4.60705
lowerback -2.46359 0.43375 -1.8501
upperback 1.29531 0.699834 -2.15165
thorax 2.71727 0.335703 -1.1401
lowerneck -8.59512 -4.25019 -2.04038
upperneck 35.2838 -10.7976 13.4129
head 14.5709 -3.3548 4.28522
rclavicle 1.38217e-015 9.0447e-015
rhumerus -36.716 -22.2003 -73.6262
rradius 23.1058
rwrist 29.1596
rhand -25.2239 26.1839
rfingers 7.12502
rthumb 1.29533 -3.79192
lclavicle 1.38217e-015 9.0447e-015
lhumerus -36.3011 29.008 69.8249
lradius 22.0135
lwrist -27.6282
lhand -13.4212 28.7966
lfingers 7.12502
lthumb 12.6871 58.3913
rfemur -5.67093 5.52097 15.7143
rtibia 20.9977
rfoot -15.2703 -16.0089
rtoes 6.69594
lfemur -7.89917 -3.39556 -19.561
ltibia 16.8534
lfoot -9.70232 4.17607
ltoes -1.69221
146
root 7.53413 18.354 -9.94166 1.05721 -3.42755 4.58338
lowerback -2.62652 0.421639 -1.92221
upperback 1.28943 0.689729 -2.07436
thorax 2.8011 0.328176 -1.01955
lowerneck -8.62374 -4.26307 -2.21768
upperneck 35.2701 -10.8236 13.5411
head 14.5955 -3.37429 4.3678
rclavicle 1.00914e-014 -6.36111e-015
rhumerus -36.711 -22.3792 -73.4675
rradius 23.0036
rwrist 29.184
rhand -25.4186 26.9332
rfingers 7.12502
rthumb 1.1073 -3.04371
lclavicle 1.00914e-014 -6.36111e-015
lhumerus -36.0986 28.7998 70.2577
lradius 22.5593
lwrist -27.8093
lhand -12.3037 29.981
lfingers 7.12502
lthumb 13.7643 59.5057
rfemur -5.83997 5.58866 15.7145
rtibia 20.9815
rfoot -15.1968 -16.0216
rtoes 8.92171
lfemur -8.06843 -3.44496 -19.5328
ltibia 16.8854
lfoot -9.77591 4.29194
ltoes 0.998801
147
root 7.53843 18.3485 -9.94234 0.929452 -3.43978 4.4612
lowerback -2.48897 0.407112 -1.71606
upperback 1.28705 0.658479 -2.09002
thorax 2.72337 0.316914 -1.15359
lowerneck -8.58453 -4.22194 -2.11817
upperneck 35.3233 -10.7811 13.5069
head 14.5982 -3.34691 4.34527
rclavicle -9.86158e-015 1.44119e-014
rhumerus -36.756 -22.4193 -73.5542
rradius 22.8282
rwrist 28.7961
rhand -25.4069 26.9809
rfingers 7.12502
rthumb 1.11855 -2.99595
lclavicle -9.86158e-015 1.44119e-014
lhumerus -36.0596 28.549 70.3933
lradius 23.1973
lwrist -28.2148
lhand -11.3594 30.5096
lfingers 7.12502
lthumb 14.6742 59.9703
rfemur -5.68367 5.52404 15.8424
rtibia 20.9418
rfoot -15.0715 -15.995
rtoes 7.47386
lfemur -7.96002 -3.58109 -19.4159
ltibia 16.9402
lfoot -10.0783 4.39295
ltoes 4.10674
148
root 7.54058 18.3455 -9.94484 0.890387 -3.44834 4.39582
lowerback -2.36319 0.400588 -1.58734
upperback 1.22691 0.640182 -2.11416
thorax 2.59206 0.310849 -1.25227
lowerneck -8.46092 -4.2231 -2.1874
upperneck 35.2752 -10.8006 13.6277
head 14.5636 -3.35861 4.40607
rclavicle -2.44754e-015 -3.8763e-015
rhumerus -36.8202 -22.4685 -73.6011
rradius 22.6669
rwrist 28.6677
rhand -25.6662 26.9175
rfingers 7.12502
rthumb 0.868097 -3.06051
lclavicle -2.44754e-015 -3.8763e-015
lhumerus -35.9039 28.1788 70.6323
lradius 23.2807
lwrist -27.0498
lhand -12.1948 29.7705
lfingers 7.12502
lthumb 13.8692 59.288
rfemur -5.6242 5.54682 15.9285
rtibia 20.8912
rfoot -14.9071 -16.0841
rtoes 6.46499
lfemur -7.98461 -3.76154 -19.3392
ltibia 17.0263
lfoot -10.1488 4.51917
ltoes 1.97341
149
root 7.53849 18.3487 -9.94616 0.873813 -3.49682 4.40086
lowerback -2.28934 0.444147 -1.61204
upperback 1.18921 0.696036 -2.12378
thorax 2.51211 0.338682 -1.24635
lowerneck -8.41082 -4.28534 -2.26735
upperneck 35.2029 -10.901 13.7311
head 14.5443 -3.40566 4.44626
rclavicle 1.15481e-014 1.13307e-014
rhumerus -36.9977 -22.7838 -73.4494
rradius 22.6906
rwrist 29.0602
rhand -26.4441 26.2996
rfingers 7.12502
rthumb 0.116847 -3.68009
lclavicle 1.15481e-014 1.13307e-014
lhumerus -35.7095 27.771 70.9827
lradius 23.414
lwrist -26.3598
lhand -11.9633 29.5964
lfingers 7.12502
lthumb 14.0924 59.0985
rfemur -5.62079 5.56185 15.941
rtibia 20.8648
rfoot -14.8189 -16.0977
rtoes 4.14992
lfemur -7.97406 -3.69687 -19.3478
ltibia 17.053
lfoot -9.91521 4.5537
ltoes -1.50305
150
root 7.53741 18.3532 -9.94511 0.900056 -3.57007 4.47825
lowerback -2.34251 0.480833 -1.73745
upperback 1.17844 0.750609 -2.12548
thorax 2.53003 0.363743 -1.17501
lowerneck -8.52038 -4.33788 -2.21571
upperneck 35.2873 -10.9739 13.6282
head 14.6077 -3.4338 4.38462
rclavicle 8.13464e-015 2.73329e-014
rhumerus -37.0971 -23.1238 -73.2787
rradius 22.6371
rwrist 29.5163
rhand -26.6728 25.5372
rfingers 7.12502
rthumb -0.104082 -4.44255
lclavicle 8.13464e-015 2.73329e-014
lhumerus -35.6471 28.0261 71.0418
lradius 23.6987
lwrist -26.9986
lhand -11.5655 29.5017
lfingers 7.12502
lthumb 14.4757 58.9767
rfemur -5.67735 5.54575 15.8471
rtibia 20.8555
rfoot -14.7832 -16.0739
rtoes -1.01322
lfemur -7.98427 -3.50709 -19.4372
ltibia 17.0581
lfoot -9.84353 4.46372
ltoes -1.71959
151
root 7.53909 18.3542 -9.94484 0.923011 -3.59444 4.5131
lowerback -2.38879 0.466386 -1.7991
upperback 1.1735 0.733933 -2.08909
thorax 2.5496 0.353969 -1.10345
lowerneck -8.74352 -4.31304 -2.13469
upperneck 35.4246 -10.9171 13.4388
head 14.6966 -3.40499 4.30151
rclavicle 7.17799e-015 2.61402e-014
rhumerus -37.0531 -23.0815 -73.2664
rradius 22.5969
rwrist 29.6856
rhand -25.8102 25.7596
rfingers 7.12502
rthumb 0.729092 -4.21893
lclavicle 7.17799e-015 2.61402e-014
lhumerus -35.335 28.2714 71.2235
lradius 23.4437
lwrist -26.5419
lhand -13.3309 28.9923
lfingers 7.12502
lthumb 12.7742 58.5815
rfemur -5.68943 5.67552 15.8009
rtibia 20.8434
rfoot -14.8736 -16.1493
rtoes 3.5721
lfemur -8.00427 -3.4571 -19.4759
ltibia 17.0717
lfoot -9.86406 4.50928
ltoes -1.57563
152
root 7.5391 18.3529 -9.9447 0.932385 -3.61582 4.51397
lowerback -2.38292 0.441673 -1.83232
upperback 1.12873 0.699544 -2.04449
thorax 2.49901 0.336164 -1.04067
lowerneck -8.94558 -4.21913 -1.95128
upperneck 35.5738 -10.7549 13.1817
head 14.7617 -3.32547 4.18778
rclavicle 3.3079e-015 -6.26172e-015
rhumerus -37.0439 -22.6736 -73.4432
rradius 22.6872
rwrist 29.407
rhand -25.1763 25.8613
rfingers 7.12502
rthumb 1.34128 -4.11423
lclavicle 3.3079e-015 -6.26172e-015
lhumerus -35.003 27.9132 71.6185
lradius 23.3021
lwrist -25.6133
lhand -14.2163 29.1802
lfingers 7.12502
lthumb 11.9205 58.8209
rfemur -5.67506 5.9257 15.8126
rtibia 20.8452
rfoot -15.0109 -16.2707
rtoes 6.30658
lfemur -7.99181 -3.50805 -19.4778
ltibia 17.0502
lfoot -9.82997 4.69064
ltoes -2.05981
153
root 7.53864 18.3533 -9.9457 0.89708 -3.65155 4.54914
lowerback -2.33614 0.4199 -1.91733
upperback 1.09228 0.670427 -2.03251
thorax 2.43396 0.320526 -0.982427
lowerneck -8.93742 -4.15931 -1.80503
upperneck 35.5973 -10.6405 13.0134
head 14.7334 -3.27604 4.1074
rclavicle -9.92992e-015 2.40529e-014
rhumerus -37.0625 -22.345 -73.6921
rradius 22.7781
rwrist 29.0094
rhand -25.2656 25.4414
rfingers 7.12502
rthumb 1.25508 -4.53465
lclavicle -9.92992e-015 2.40529e-014
lhumerus -34.955 27.7516 71.8049
lradius 23.6136
lwrist -25.4299
lhand -13.8218 29.4744
lfingers 7.12502
lthumb 12.3009 59.0926
rfemur -5.65843 6.01936 15.7864
rtibia 20.8705
rfoot -15.0059 -16.3236
rtoes 6.29465
lfemur -7.92396 -3.67893 -19.5145
ltibia 16.986
lfoot -9.67619 5.19866
ltoes -1.97659
154
root 7.53925 18.3545 -9.94897 0.901969 -3.62618 4.50426
lowerback -2.37775 0.391956 -1.91753
upperback 1.10763 0.6344 -2.00597
thorax 2.47272 0.302088 -0.956331
lowerneck -8.92147 -4.15078 -1.79497
upperneck 35.498 -10.6087 13.0017
head 14.6758 -3.26718 4.09944
rclavicle -1.05107e-014 -2.96189e-014
rhumerus -37.1136 -22.1958 -73.8779
rradius 23.028
rwrist 28.9374
rhand -25.374 24.9309
rfingers 7.12502
rthumb 1.15037 -5.04575
lclavicle -1.05107e-014 -2.96189e-014
lhumerus -34.7613 27.8316 71.9748
lradius 23.7765
lwrist -25.4157
lhand -13.3956 29.5038
lfingers 7.12502
lthumb 12.7118 59.0969
rfemur -5.71099 6.00937 15.843
rtibia 20.9323
rfoot -14.9183 -16.3793
rtoes 6.20008
lfemur -7.89771 -3.69728 -19.4584
ltibia 16.877
lfoot -9.42441 5.5085
ltoes -2.11133
